<?xml version="1.0" encoding="UTF-8"?>
<svg id="Layer_1" data-name="Layer 1" xmlns="http://www.w3.org/2000/svg" viewBox="0 0 1742.79 1984.21">
  <defs>
    <style>
      .cls-1 {
        fill: #da7c2b;
      }

      .cls-2 {
        fill: #fff;
      }

      .cls-3 {
        fill: #c7c8ca;
      }

      .cls-4 {
        fill: #f89a16;
      }
    </style>
  </defs>
  <ellipse class="cls-3" cx="667.97" cy="1872.93" rx="649.71" ry="111.28"/>
  <path d="M933.76,1775.81c0-29.5-23.92-53.42-53.42-53.42h-163.28c-24.37,0-45.97-15.91-52.98-39.26l-105.96-347.65,18.1-9.63c251.03-105.38,519.58,82.75,706.54-97.93.44-.44.88-.88,1.17-1.17,23.21-21.02,46.27-42.47,114.72.29,73.56,46.12,236,166.53,309.71,372.32,0,0,44.66-15.91,32.25-70.49-12.41-54.73-102.89-212.36-287.96-352.18-33.86-25.69-64.36-47-89.76-64.07,36.93-158.21-155.14-349.11-342.69-259.21-134.57-126.54-284.6-178.2-422.67-176.16-365.6,5.11-647.58,386.04-344.3,749.45.15.15.29.29.58.58,4.67,5.55,9.49,11.09,14.3,16.64,19.7,23.64,32.69,44.51,43.93,81.29l90.34,296.57h-31.96c-29.48,0-53.42,23.94-53.42,53.42h121.43l204.04,96.47c12.55-26.71,1.17-58.53-25.4-71.08l-53.56-25.25h153.83c0-29.48-23.94-53.42-53.42-53.42h-139.38c-24.37,0-45.97-15.91-52.98-39.26l-71.66-235.42c-17.81-61.88,23.21-102.31,61.74-107.13,35.17-4.38,52.83,18.39,69.47,73.27l63.63,208.85h-31.96c-29.48,0-53.42,23.94-53.42,53.42h121.43l204.04,96.47c12.55-26.71,1.17-58.53-25.4-71.08l-53.56-25.25h177.88Z"/>
  <g>
    <rect class="cls-4" x="545.68" y="2.53" width="52.19" height="1441.85" transform="translate(-114.16 107.17) rotate(-9.74)"/>
    <polygon class="cls-1" points="581.21 624.21 525.41 607 432.07 62.46 485.58 66.06 581.21 624.21"/>
  </g>
  <path class="cls-4" d="M981.62,279.44c-30.85,1.91-83.72,3.58-83.72,3.58l79.01-31.06L933.66,0,0,160.24l56.63,330,68.11,13.66s-38.47,19-60.89,28.37l22.52,131.23,933.66-160.24-38.41-223.82Z"/>
  <g>
    <circle class="cls-2" cx="1144.16" cy="1031.93" r="82.26" transform="translate(-394.57 1111.29) rotate(-45)"/>
    <circle cx="1124.15" cy="1004.52" r="52.63" transform="translate(-258.21 1606.05) rotate(-65.3)"/>
  </g>
  <path class="cls-2" d="M387.43,559.95l-69.59-57.58,107.75-360.2,93.69-15.45,226.75,308.17-45.64,75.04-312.97,50.02ZM376.38,484.62l25.78,21.33,266.91-42.65,15.63-25.7-187.97-255.46-31.41,5.18-88.94,297.31Z"/>
  <path class="cls-2" d="M526.16,300.48l5.44,89.61-20.72,3.32-28.24-85.96-9.08-47.73,43.52-6.98,9.08,47.73ZM544.62,403.52l7.02,36.88-41.43,6.64-7.02-36.88,41.43-6.64Z"/>
</svg>