<?xml version="1.0" encoding="UTF-8" standalone="no"?>
<svg
   viewBox="0 0 16 16"
   version="1.1"
   width="16"
   height="16"
   xmlns="http://www.w3.org/2000/svg">
   <style>
      @media (prefers-color-scheme: no-preference)) { path { fill: black; } }
      @media (prefers-color-scheme: light) { path { fill: black; } }
      @media (prefers-color-scheme: dark) { path { fill: white; } }
   </style>
  <path
     d="m 15.856451,5.4747483 c -4.414423,-4.0830325 -11.2801069,-4.0815377 -15.6927824,0 -0.1659414,0.1534841 -0.1691808,0.4133607 -0.00872,0.5725761 l 0.8531387,0.8464068 c 0.1529856,0.151989 0.3991588,0.155228 0.5581246,0.0095 3.6357849,-3.3308105 9.2514201,-3.3315579 12.8879501,0 0.15897,0.14576 0.405143,0.142272 0.558126,-0.0095 L 15.86542,6.0473244 C 16.025631,5.888109 16.022395,5.6282324 15.85652,5.4747483 Z M 8.010059,10.386248 c -0.8807908,0 -1.5946425,0.713852 -1.5946425,1.594643 0,0.880791 0.7138517,1.594643 1.5946425,1.594643 0.880791,0 1.594643,-0.713852 1.594643,-1.594643 0,-0.880791 -0.713852,-1.594643 -1.594643,-1.594643 z m 5.049782,-2.0827538 c -2.871849,-2.5397167 -7.2309551,-2.5369759 -10.0995669,0 -0.1719231,0.15199 -0.177404,0.415853 -0.014201,0.576813 l 0.8581171,0.846905 c 0.1494981,0.147504 0.3901898,0.157471 0.5494044,0.01993 2.0917236,-1.808177 5.2259444,-1.80419 7.3126844,0 0.159209,0.137537 0.399903,0.12782 0.549403,-0.01993 l 0.858114,-0.846905 c 0.163455,-0.16096 0.157722,-0.425072 -0.01395,-0.576813 z"
     id="path1"
     style="stroke-width:0.0249163" />
</svg>


