<?xml version="1.0" encoding="UTF-8" standalone="no"?>
<!-- Generator: Adobe Illustrator 24.1.2, SVG Export Plug-In . SVG Version: 6.00 Build 0)  -->

<svg
   version="1.1"
   id="Layer_1"
   x="0px"
   y="0px"
   viewBox="0 0 1577536 1577536"
   xml:space="preserve"
   sodipodi:docname="Kiwix_logo_v3.svg"
   inkscape:export-filename="../../../../Desktop/Kiwix_logo_v3-white.svg"
   inkscape:export-xdpi="150.31"
   inkscape:export-ydpi="150.31"
   width="1577536"
   height="1577536"
   xmlns:inkscape="http://www.inkscape.org/namespaces/inkscape"
   xmlns:sodipodi="http://sodipodi.sourceforge.net/DTD/sodipodi-0.dtd"
   xmlns="http://www.w3.org/2000/svg"
   xmlns:svg="http://www.w3.org/2000/svg"><defs
   id="defs1" /><sodipodi:namedview
   id="namedview1"
   pagecolor="#ffffff"
   bordercolor="#666666"
   borderopacity="1.0"
   inkscape:showpageshadow="2"
   inkscape:pageopacity="0.0"
   inkscape:pagecheckerboard="0"
   inkscape:deskcolor="#d1d1d1" />
<style
   type="text/css"
   id="style1">
	.st0{fill:#010101;}
</style>
<path
   class="st0"
   d="M 1165,764.1 C 1156.7,727.7 1096.5,622.8 973.4,529.7 950.9,512.6 930.6,498.4 913.7,487.1 938.3,381.8 810.4,254.8 685.6,314.6 596,230.3 496.1,195.9 404.2,197.3 c -243.3,3.4 -431,256.9 -229.1,498.8 0.1,0.1 0.2,0.2 0.4,0.4 3.1,3.7 6.3,7.4 9.5,11.1 13.1,15.7 21.8,29.6 29.2,54.1 L 274.4,959 h -21.3 c -19.6,0 -35.6,15.9 -35.6,35.6 h 80.8 l 135.8,64.2 c 8.4,-17.8 0.8,-39 -16.9,-47.3 L 381.6,994.7 H 484 c 0,-19.6 -15.9,-35.6 -35.6,-35.6 H 355.6 C 339.4,959.1 325,948.5 320.3,933 L 272.6,776.3 c -11.9,-41.2 15.4,-68.1 41.1,-71.3 23.4,-2.9 35.2,12.2 46.2,48.8 l 42.4,139 H 381 c -19.6,0 -35.6,15.9 -35.6,35.6 h 80.8 L 562,992.6 c 8.4,-17.8 0.8,-39 -16.9,-47.3 l -35.6,-16.8 h 75.1 c 7.6,12.9 16.9,25.1 28,36.1 70,70 183.7,70 253.7,0 70,-70 70,-183.7 0,-253.7 -70,-70 -183.7,-70 -253.7,0 -49.2,49.2 -63.9,120 -43.9,182 h -85 c -16.2,0 -30.6,-10.6 -35.3,-26.1 L 378,635.4 390,629 c 167.1,-70.1 345.8,55.1 470.2,-65.2 0.3,-0.3 0.6,-0.6 0.8,-0.8 15.4,-14 30.8,-28.3 76.3,0.2 49,30.7 157.1,110.8 206.1,247.8 0.1,0 29.8,-10.6 21.6,-46.9 z M 821.2,460.6 c -0.4,-18.7 -15.6,-33.7 -34.5,-33.7 -19,0 -34.5,15.4 -34.5,34.5 0,10.4 4.6,19.6 11.8,25.9 -25,-4.8 -43.8,-26.6 -43.8,-52.9 0,-29.8 24.1,-53.9 53.9,-53.9 29.8,0 53.9,24.1 53.9,53.9 0,9.5 -2.5,18.4 -6.8,26.2 z"
   id="path1"
   style="fill:#ffffff" />
</svg>
